<svg xmlns="http://www.w3.org/2000/svg" xmlns:xlink="http://www.w3.org/1999/xlink" width="500" zoomAndPan="magnify" viewBox="0 0 375 374.999991" height="500" preserveAspectRatio="xMidYMid meet" version="1.0"><defs><clipPath id="794225bae7"><path d="M 58.730469 160 L 221 160 L 221 284.691406 L 58.730469 284.691406 Z M 58.730469 160 " clip-rule="nonzero"/></clipPath></defs><path fill="#6e06de" d="M 242.140625 129.011719 C 239.578125 127.9375 237.898438 126.105469 238.390625 124.929688 C 238.886719 123.753906 241.363281 123.667969 243.925781 124.742188 C 246.488281 125.820312 248.164062 127.648438 247.667969 128.828125 C 247.179688 130.007812 244.699219 130.089844 242.140625 129.011719 Z M 229.6875 114.628906 C 229.035156 116.1875 225.757812 116.300781 222.367188 114.875 C 218.972656 113.449219 216.753906 111.027344 217.40625 109.46875 C 218.058594 107.910156 221.339844 107.800781 224.730469 109.226562 C 228.121094 110.648438 230.339844 113.070312 229.6875 114.628906 Z M 203.972656 110.46875 C 203.480469 111.644531 201 111.726562 198.441406 110.652344 C 195.878906 109.578125 194.203125 107.746094 194.695312 106.566406 C 195.1875 105.390625 197.664062 105.308594 200.226562 106.382812 C 202.789062 107.460938 204.464844 109.289062 203.972656 110.46875 Z M 227.050781 103.679688 C 208.597656 95.921875 189.332031 97.875 178.601562 107.363281 C 191.28125 111.453125 205.011719 116.539062 219.175781 122.492188 C 233.34375 128.441406 246.585938 134.691406 258.382812 140.882812 C 257.621094 126.566406 245.507812 111.433594 227.050781 103.679688 " fill-opacity="1" fill-rule="nonzero"/><path fill="#6e06de" d="M 215.589844 131.058594 C 171.011719 112.324219 131 102.25 115.941406 105.128906 C 125.574219 98.167969 168.503906 107.671875 216.871094 127.996094 C 265.238281 148.320312 302.09375 172.332031 303.886719 184.097656 C 295.386719 171.316406 260.171875 149.789062 215.589844 131.058594 Z M 218.546875 123.996094 C 162.644531 100.507812 113.53125 90.53125 108.851562 101.710938 C 105.011719 110.882812 133.996094 140.175781 171.664062 161.792969 L 172.617188 160.8125 C 168.773438 157.082031 166.65625 153.871094 167.296875 152.34375 C 168.847656 148.644531 185.097656 151.945312 203.59375 159.714844 C 222.085938 167.488281 235.828125 176.785156 234.277344 180.484375 C 233.636719 182.011719 229.867188 182.753906 224.519531 182.621094 L 224.488281 183.988281 C 266.28125 195.757812 307.449219 195.941406 311.292969 186.769531 C 315.972656 175.589844 274.445312 147.484375 218.546875 123.996094 " fill-opacity="1" fill-rule="nonzero"/><g clip-path="url(#794225bae7)"><path fill="#70ff00" d="M 200.644531 166.757812 C 188.554688 161.679688 177.933594 159.519531 176.921875 161.9375 L 58.730469 284.613281 L 218.210938 284.613281 L 220.703125 180.332031 C 221.710938 177.914062 212.734375 171.835938 200.644531 166.757812 " fill-opacity="1" fill-rule="nonzero"/></g></svg>